<?xml version="1.0"?>
<svg width="488" height="251" xmlns="http://www.w3.org/2000/svg" xmlns:svg="http://www.w3.org/2000/svg">
 <g class="layer" display="inline">
  <title>Layer 1</title>
  <path clip-rule="evenodd" d="m124.27,0.41l239.03,0c68.11,0 123.52,55.61 123.52,123.95c0,68.35 -55.41,123.95 -123.52,123.95l-239.03,0c-68.11,0 -123.52,-55.6 -123.52,-123.95c0,-68.34 55.41,-123.95 123.52,-123.95zm109.75,192.14c3,3.16 7.44,3 11.38,2.18l0.03,0.02c1.83,-1.49 -0.77,-3.37 -3.24,-5.16c-1.49,-1.08 -2.94,-2.13 -3.36,-3.04c1.37,-1.68 -2.69,-5.48 -5.85,-8.43c-1.32,-1.25 -2.49,-2.34 -3.04,-3.07c-2.24,-2.44 -3.15,-5.53 -4.06,-8.64c-0.6,-2.06 -1.2,-4.13 -2.21,-6.03c-6.17,-14.34 -13.25,-28.56 -23.16,-40.7c-6.38,-8.06 -13.65,-15.29 -20.92,-22.51c-4.7,-4.66 -9.39,-9.32 -13.84,-14.21c-4.58,-4.73 -7.34,-10.56 -10.1,-16.39c-2.31,-4.89 -4.63,-9.78 -8.02,-14.04c-10.27,-15.2 -42.68,-19.35 -47.44,2.12c0.02,0.66 -0.19,1.09 -0.78,1.52c-2.63,1.93 -4.97,4.11 -6.93,6.76c-4.82,6.72 -5.56,18.12 0.44,24.16c0.01,-0.13 0.02,-0.26 0.03,-0.39c0.2,-3.05 0.39,-5.9 2.8,-8.08c4.64,3.99 11.67,5.41 17.05,2.43c6.48,9.3 8.54,20.54 10.62,31.82c1.72,9.4 3.46,18.82 7.75,27.17c0.09,0.15 0.18,0.3 0.27,0.45c2.52,4.2 5.08,8.47 8.32,12.14c1.18,1.82 3.59,3.79 6,5.75c3.18,2.59 6.35,5.18 6.66,7.42c0.02,0.97 0.01,1.96 0.01,2.95c-0.02,5.88 -0.05,11.97 3.72,16.81c2.08,4.22 -3.02,8.47 -7.14,7.94c-2.25,0.32 -4.71,-0.28 -7.16,-0.87c-3.34,-0.8 -6.66,-1.6 -9.36,-0.06c-0.75,0.82 -1.84,0.85 -2.94,0.88c-1.29,0.03 -2.6,0.06 -3.37,1.42c-0.16,0.4 -0.53,0.85 -0.91,1.33c-0.85,1.03 -1.76,2.15 -0.67,3.01c0.1,-0.07 0.2,-0.15 0.3,-0.22c1.66,-1.27 3.25,-2.48 5.49,-1.73c-0.3,1.66 0.77,2.11 1.84,2.55c0.19,0.08 0.38,0.16 0.56,0.24c-0.01,0.39 -0.09,0.77 -0.17,1.16c-0.18,0.92 -0.35,1.82 0.36,2.62c0.34,-0.34 0.64,-0.73 0.94,-1.12c0.74,-0.95 1.47,-1.9 2.8,-2.25c2.92,3.9 5.86,2.28 9.56,0.25c4.16,-2.3 9.28,-5.11 16.39,-1.13c-2.73,-0.13 -5.16,0.2 -6.99,2.46c-0.45,0.5 -0.84,1.09 -0.04,1.75c4.21,-2.73 5.96,-1.75 7.61,-0.82c1.19,0.66 2.32,1.3 4.29,0.49c0.47,-0.24 0.93,-0.49 1.4,-0.75c3.16,-1.7 6.37,-3.43 10.12,-2.83c-2.81,0.8 -3.8,2.58 -4.89,4.52c-0.54,0.96 -1.1,1.96 -1.91,2.9c-0.43,0.43 -0.63,0.93 -0.14,1.65c5.87,-0.48 8.09,-1.97 11.08,-3.98c1.43,-0.96 3.04,-2.04 5.31,-3.19c2.5,-1.54 5,-0.55 7.43,0.4c2.63,1.04 5.18,2.04 7.53,-0.26c0.74,-0.7 1.67,-0.71 2.6,-0.72c0.34,0 0.68,0 1,-0.04c-0.73,-3.92 -4.86,-3.87 -9.05,-3.83c-4.85,0.06 -9.78,0.11 -9.63,-5.97c4.5,-3.08 4.55,-8.41 4.58,-13.46c0.01,-1.22 0.02,-2.42 0.09,-3.57c3.32,1.85 6.82,3.29 10.3,4.73c3.28,1.35 6.54,2.69 9.6,4.35c3.19,5.15 8.18,11.96 14.82,11.52c0.18,-0.53 0.33,-0.98 0.53,-1.5c0.38,0.06 0.79,0.16 1.2,0.27c1.74,0.44 3.61,0.91 4.51,-1.15zm130.21,-58.45c3.85,3.84 9.06,5.99 14.5,5.99c5.44,0 10.66,-2.15 14.51,-5.99c3.84,-3.84 6.01,-9.04 6.01,-14.47c0,-5.43 -2.17,-10.63 -6.01,-14.47c-3.85,-3.84 -9.07,-5.99 -14.51,-5.99c-2.54,0 -5.04,0.47 -7.37,1.37l-11.76,-17.16l-8.19,5.61l11.81,17.25c-3.21,3.7 -5,8.46 -5,13.39c0,5.43 2.16,10.63 6.01,14.47zm-36.81,-55.58c2.88,1.42 6.05,2.15 9.26,2.13c4.39,-0.04 8.64,-1.47 12.15,-4.09c3.51,-2.62 6.08,-6.3 7.34,-10.48c1.26,-4.19 1.15,-8.67 -0.33,-12.79c-1.48,-4.11 -4.24,-7.65 -7.87,-10.09c-2.67,-1.79 -5.72,-2.92 -8.91,-3.32c-3.18,-0.4 -6.42,-0.04 -9.44,1.04c-3.03,1.08 -5.76,2.85 -7.97,5.18c-2.21,2.32 -3.84,5.13 -4.77,8.2c-0.92,3.07 -1.11,6.31 -0.55,9.46c0.56,3.16 1.86,6.14 3.78,8.7c1.93,2.56 4.43,4.64 7.31,6.06zm0,118.83c2.88,1.42 6.05,2.15 9.26,2.12c4.39,-0.03 8.64,-1.47 12.15,-4.09c3.51,-2.62 6.08,-6.29 7.34,-10.48c1.26,-4.19 1.15,-8.67 -0.33,-12.78c-1.48,-4.12 -4.24,-7.66 -7.87,-10.09c-2.67,-1.79 -5.72,-2.93 -8.91,-3.33c-3.18,-0.39 -6.42,-0.04 -9.44,1.04c-3.03,1.08 -5.76,2.86 -7.97,5.18c-2.21,2.32 -3.84,5.13 -4.77,8.2c-0.92,3.07 -1.11,6.31 -0.55,9.47c0.56,3.15 1.86,6.13 3.78,8.69c1.93,2.57 4.43,4.64 7.31,6.07zm18.86,-72.63l0,-10.18l-31.4,0c-0.78,-3.08 -2.29,-5.94 -4.39,-8.34l11.81,-17.5l-8.59,-5.69l-11.81,17.49c-2.17,-0.78 -4.45,-1.19 -6.75,-1.22c-5.43,0 -10.63,2.15 -14.46,5.96c-3.84,3.82 -5.99,8.99 -5.99,14.39c0,5.4 2.15,10.57 5.99,14.39c3.83,3.81 9.03,5.96 14.46,5.96c2.3,-0.03 4.58,-0.44 6.75,-1.22l11.81,17.49l8.49,-5.69l-11.71,-17.5c2.1,-2.4 3.61,-5.26 4.39,-8.34l31.4,0z" fill="#1C3C3C" fill-rule="evenodd" id="svg_1"/>
 </g>
</svg>