<?xml version="1.0" encoding="UTF-8"?>
<!DOCTYPE svg PUBLIC "-//W3C//DTD SVG 1.1//EN" "http://www.w3.org/Graphics/SVG/1.1/DTD/svg11.dtd">
<svg xmlns="http://www.w3.org/2000/svg" version="1.1" width="308px" height="308px" style="shape-rendering:geometricPrecision; text-rendering:geometricPrecision; image-rendering:optimizeQuality; fill-rule:evenodd; clip-rule:evenodd" xmlns:xlink="http://www.w3.org/1999/xlink">
<g><path style="opacity:1" fill="#fefefe" d="M -0.5,-0.5 C 102.167,-0.5 204.833,-0.5 307.5,-0.5C 307.5,102.167 307.5,204.833 307.5,307.5C 204.833,307.5 102.167,307.5 -0.5,307.5C -0.5,204.833 -0.5,102.167 -0.5,-0.5 Z"/></g>
<g><path style="opacity:1" fill="#99b3cd" d="M 243.5,112.5 C 246.167,114.173 248.167,116.507 249.5,119.5C 249.158,120.338 248.492,120.672 247.5,120.5C 245.073,117.757 242.073,115.757 238.5,114.5C 234.535,111.074 229.869,109.74 224.5,110.5C 222.393,109.532 220.059,109.198 217.5,109.5C 217.611,108.883 217.944,108.383 218.5,108C 227.364,106.908 235.698,108.408 243.5,112.5 Z"/></g>
<g><path style="opacity:1" fill="#cd5b37" d="M 63.5,109.5 C 65.9118,109.694 66.9118,111.027 66.5,113.5C 65.5,114.167 64.5,114.833 63.5,115.5C 62.1667,115.167 60.8333,114.833 59.5,114.5C 60.0798,112.251 61.4131,110.585 63.5,109.5 Z"/></g>
<g><path style="opacity:1" fill="#e0e9ee" d="M 217.5,109.5 C 220.059,109.198 222.393,109.532 224.5,110.5C 213.568,113.77 204.901,120.103 198.5,129.5C 196.241,133.1 193.574,136.433 190.5,139.5C 189.441,137.274 189.608,134.941 191,132.5C 197.624,122.026 206.457,114.359 217.5,109.5 Z"/></g>
<g><path style="opacity:1" fill="#fcfcfc" d="M 233.5,117.5 C 238.17,120.175 240.837,124.175 241.5,129.5C 241.5,131.833 241.5,134.167 241.5,136.5C 237.187,146.084 230.353,153.417 221,158.5C 219.588,157.314 218.421,155.981 217.5,154.5C 214.355,146.024 208.355,140.691 199.5,138.5C 203.88,129.95 210.213,123.117 218.5,118C 223.419,116.222 228.419,116.055 233.5,117.5 Z"/></g>
<g><path style="opacity:1" fill="#414245" d="M 238.5,114.5 C 245.013,118.696 248.013,124.696 247.5,132.5C 246.883,132.611 246.383,132.944 246,133.5C 243.237,123.037 242.237,123.037 243,133.5C 242.79,131.942 242.29,130.609 241.5,129.5C 240.837,124.175 238.17,120.175 233.5,117.5C 231.043,115.557 228.043,114.557 224.5,114.5C 221.244,114.919 218.244,115.919 215.5,117.5C 217.12,115.016 219.453,113.516 222.5,113C 227.996,112.151 233.329,112.651 238.5,114.5 Z"/></g>
<g><path style="opacity:1" fill="#decc4e" d="M 84.5,112.5 C 84.5569,113.609 84.8902,114.609 85.5,115.5C 85.5,117.167 85.5,118.833 85.5,120.5C 81.3157,122.564 77.3157,124.897 73.5,127.5C 73.5,126.5 73.5,125.5 73.5,124.5C 69.8959,123.745 66.5625,122.412 63.5,120.5C 63.5,118.833 63.5,117.167 63.5,115.5C 64.5,114.833 65.5,114.167 66.5,113.5C 66.9118,111.027 65.9118,109.694 63.5,109.5C 63.9175,108.778 64.5842,108.278 65.5,108C 69.8333,107.333 74.1667,107.333 78.5,108C 81.1064,108.792 83.1064,110.292 84.5,112.5 Z"/></g>
<g><path style="opacity:1" fill="#2b2419" d="M 72.5,116.5 C 71.3646,118.213 69.698,118.88 67.5,118.5C 66.6993,116.958 66.366,115.292 66.5,113.5C 70.1156,111.556 72.1156,112.556 72.5,116.5 Z"/></g>
<g><path style="opacity:1" fill="#747574" d="M 233.5,117.5 C 228.419,116.055 223.419,116.222 218.5,118C 210.213,123.117 203.88,129.95 199.5,138.5C 199.167,138.5 198.833,138.5 198.5,138.5C 198.5,138.167 198.5,137.833 198.5,137.5C 199.045,135.407 199.878,133.407 201,131.5C 205.729,126.603 210.562,121.936 215.5,117.5C 218.244,115.919 221.244,114.919 224.5,114.5C 228.043,114.557 231.043,115.557 233.5,117.5 Z"/></g>
<g><path style="opacity:1" fill="#f1e657" d="M 67.5,118.5 C 69.698,118.88 71.3646,118.213 72.5,116.5C 75.897,115.808 79.2303,115.808 82.5,116.5C 80.3501,118.149 78.3501,119.982 76.5,122C 72.6115,123.14 69.2781,122.307 66.5,119.5C 66.6236,118.893 66.9569,118.56 67.5,118.5 Z"/></g>
<g><path style="opacity:1" fill="#7a96b3" d="M 243.5,112.5 C 235.698,108.408 227.364,106.908 218.5,108C 217.944,108.383 217.611,108.883 217.5,109.5C 206.457,114.359 197.624,122.026 191,132.5C 189.608,134.941 189.441,137.274 190.5,139.5C 190.539,140.756 190.039,141.756 189,142.5C 188.79,140.942 188.29,139.609 187.5,138.5C 192.776,124.054 202.442,113.554 216.5,107C 223.939,104.858 231.273,105.191 238.5,108C 240.618,109.049 242.284,110.549 243.5,112.5 Z"/></g>
<g><path style="opacity:1" fill="#584449" d="M 224.5,110.5 C 229.869,109.74 234.535,111.074 238.5,114.5C 233.329,112.651 227.996,112.151 222.5,113C 219.453,113.516 217.12,115.016 215.5,117.5C 210.562,121.936 205.729,126.603 201,131.5C 199.878,133.407 199.045,135.407 198.5,137.5C 195.5,141.508 194.834,145.841 196.5,150.5C 197.527,156.195 200.527,160.528 205.5,163.5C 205.158,164.338 204.492,164.672 203.5,164.5C 196.403,158.967 193.07,151.634 193.5,142.5C 194.706,137.971 196.373,133.637 198.5,129.5C 204.901,120.103 213.568,113.77 224.5,110.5 Z"/></g>
<g><path style="opacity:1" fill="#729a39" d="M 84.5,112.5 C 90.0645,119.282 95.3978,126.282 100.5,133.5C 99.8333,133.5 99.1667,133.5 98.5,133.5C 96.8132,131.834 94.8132,130.5 92.5,129.5C 90.179,126.617 89.0123,123.283 89,119.5C 88.0513,117.907 86.8846,116.574 85.5,115.5C 84.8902,114.609 84.5569,113.609 84.5,112.5 Z"/></g>
<g><path style="opacity:1" fill="#b79539" d="M 63.5,120.5 C 66.5625,122.412 69.8959,123.745 73.5,124.5C 73.5,125.5 73.5,126.5 73.5,127.5C 73.5,128.167 73.1667,128.5 72.5,128.5C 71.1667,128.5 69.8333,128.5 68.5,128.5C 68.1667,128.5 67.8333,128.5 67.5,128.5C 65.659,126.151 64.3257,123.485 63.5,120.5 Z"/></g>
<g><path style="opacity:1" fill="#91b832" d="M 85.5,115.5 C 86.8846,116.574 88.0513,117.907 89,119.5C 89.0123,123.283 90.179,126.617 92.5,129.5C 94.8132,130.5 96.8132,131.834 98.5,133.5C 93.4053,133.221 88.4053,133.555 83.5,134.5C 81.0578,136.139 80.8911,138.139 83,140.5C 85.4248,142.667 87.9248,144.667 90.5,146.5C 92.4707,148.808 94.4707,151.142 96.5,153.5C 96.1667,153.5 95.8333,153.5 95.5,153.5C 91.6084,150.966 87.7751,148.3 84,145.5C 83.4592,142.791 81.9592,140.791 79.5,139.5C 79.9576,134.044 77.6243,130.711 72.5,129.5C 72.5,129.167 72.5,128.833 72.5,128.5C 73.1667,128.5 73.5,128.167 73.5,127.5C 77.3157,124.897 81.3157,122.564 85.5,120.5C 85.5,118.833 85.5,117.167 85.5,115.5 Z"/></g>
<g><path style="opacity:1" fill="#4b4f4a" d="M 59.5,114.5 C 60.8333,114.833 62.1667,115.167 63.5,115.5C 63.5,117.167 63.5,118.833 63.5,120.5C 64.3257,123.485 65.659,126.151 67.5,128.5C 67.5,129.5 67.5,130.5 67.5,131.5C 64.0703,131.893 60.9036,131.227 58,129.5C 57.7811,130.938 57.2811,132.271 56.5,133.5C 53.0243,126.308 54.0243,119.975 59.5,114.5 Z"/></g>
<g><path style="opacity:1" fill="#a2978b" d="M 249.5,119.5 C 252.345,124.957 253.012,130.624 251.5,136.5C 251.784,134.585 251.451,132.919 250.5,131.5C 250.372,127.583 249.372,123.917 247.5,120.5C 248.492,120.672 249.158,120.338 249.5,119.5 Z"/></g>
<g><path style="opacity:1" fill="#5a4144" d="M 238.5,114.5 C 242.073,115.757 245.073,117.757 247.5,120.5C 249.372,123.917 250.372,127.583 250.5,131.5C 250.851,135.529 250.185,139.362 248.5,143C 243.181,151.325 236.514,158.325 228.5,164C 225.818,165.762 223.152,166.262 220.5,165.5C 221.492,165.672 222.158,165.338 222.5,164.5C 228.116,160.885 233.45,156.885 238.5,152.5C 241.471,150.557 243.471,147.891 244.5,144.5C 245.88,144.038 246.547,143.038 246.5,141.5C 247.302,138.551 247.636,135.551 247.5,132.5C 248.013,124.696 245.013,118.696 238.5,114.5 Z"/></g>
<g><path style="opacity:1" fill="#717479" d="M 247.5,132.5 C 247.636,135.551 247.302,138.551 246.5,141.5C 246.547,143.038 245.88,144.038 244.5,144.5C 245.265,141.904 245.599,139.237 245.5,136.5C 244.209,136.263 243.209,136.596 242.5,137.5C 241.833,137.5 241.5,137.167 241.5,136.5C 241.5,134.167 241.5,131.833 241.5,129.5C 242.29,130.609 242.79,131.942 243,133.5C 242.237,123.037 243.237,123.037 246,133.5C 246.383,132.944 246.883,132.611 247.5,132.5 Z"/></g>
<g><path style="opacity:1" fill="#b4e13e" d="M 98.5,133.5 C 99.4567,136.168 101.457,137.668 104.5,138C 104.167,138.333 103.833,138.667 103.5,139C 106.179,140.764 108.846,142.431 111.5,144C 101.181,146.963 92.0144,144.796 84,137.5C 83.5172,136.552 83.3505,135.552 83.5,134.5C 88.4053,133.555 93.4053,133.221 98.5,133.5 Z"/></g>
<g><path style="opacity:1" fill="#9f9b9d" d="M 244.5,144.5 C 243.471,147.891 241.471,150.557 238.5,152.5C 239.75,150.068 241.25,147.734 243,145.5C 243.667,143.833 243.667,142.167 243,140.5C 242.617,141.056 242.117,141.389 241.5,141.5C 241.833,140.167 242.167,138.833 242.5,137.5C 243.209,136.596 244.209,136.263 245.5,136.5C 245.599,139.237 245.265,141.904 244.5,144.5 Z"/></g>
<g><path style="opacity:1" fill="#7188a0" d="M 198.5,138.5 C 198.833,138.5 199.167,138.5 199.5,138.5C 208.355,140.691 214.355,146.024 217.5,154.5C 215.833,153.167 214.167,151.833 212.5,150.5C 209.763,147.598 206.596,145.265 203,143.5C 201.97,143.836 201.47,144.503 201.5,145.5C 199.166,143.824 198.166,141.491 198.5,138.5 Z"/></g>
<g><path style="opacity:1" fill="#aad442" d="M 98.5,133.5 C 99.1667,133.5 99.8333,133.5 100.5,133.5C 105.152,136.821 109.485,140.487 113.5,144.5C 114.171,145.847 114.171,147.014 113.5,148C 105.751,148.647 98.0843,148.147 90.5,146.5C 87.9248,144.667 85.4248,142.667 83,140.5C 80.8911,138.139 81.0578,136.139 83.5,134.5C 83.3505,135.552 83.5172,136.552 84,137.5C 92.0144,144.796 101.181,146.963 111.5,144C 108.846,142.431 106.179,140.764 103.5,139C 103.833,138.667 104.167,138.333 104.5,138C 101.457,137.668 99.4567,136.168 98.5,133.5 Z"/></g>
<g><path style="opacity:1" fill="#59595c" d="M 198.5,137.5 C 198.5,137.833 198.5,138.167 198.5,138.5C 198.166,141.491 199.166,143.824 201.5,145.5C 201.5,146.167 201.833,146.5 202.5,146.5C 203.382,149.385 204.716,152.052 206.5,154.5C 204.772,152.774 202.772,151.441 200.5,150.5C 199.811,149.226 198.977,149.226 198,150.5C 197.172,141.19 196.672,141.19 196.5,150.5C 194.834,145.841 195.5,141.508 198.5,137.5 Z"/></g>
<g><path style="opacity:1" fill="#7da336" d="M 72.5,129.5 C 77.6243,130.711 79.9576,134.044 79.5,139.5C 81.9592,140.791 83.4592,142.791 84,145.5C 87.7751,148.3 91.6084,150.966 95.5,153.5C 95.5,153.833 95.5,154.167 95.5,154.5C 94.8333,154.5 94.1667,154.5 93.5,154.5C 88.751,152.667 84.9176,149.667 82,145.5C 81.6667,147.167 81.3333,148.833 81,150.5C 78.2116,144.802 76.2116,138.802 75,132.5C 73.955,131.627 73.1217,130.627 72.5,129.5 Z"/></g>
<g><path style="opacity:1" fill="#85a2be" d="M 187.5,138.5 C 187.795,140.735 187.461,142.735 186.5,144.5C 186.719,143.325 186.386,142.325 185.5,141.5C 172.974,147.19 163.474,156.19 157,168.5C 156.501,172.152 156.335,175.818 156.5,179.5C 155.833,177.167 155.167,174.833 154.5,172.5C 160.101,155.9 171.101,144.566 187.5,138.5 Z"/></g>
<g><path style="opacity:1" fill="#e6ebee" d="M 238.5,152.5 C 233.45,156.885 228.116,160.885 222.5,164.5C 221.167,164.5 220.5,163.833 220.5,162.5C 229.139,157.194 236.139,150.194 241.5,141.5C 242.117,141.389 242.617,141.056 243,140.5C 243.667,142.167 243.667,143.833 243,145.5C 241.25,147.734 239.75,150.068 238.5,152.5 Z"/></g>
<g><path style="opacity:1" fill="#86a2be" d="M 241.5,136.5 C 241.5,137.167 241.833,137.5 242.5,137.5C 242.167,138.833 241.833,140.167 241.5,141.5C 236.139,150.194 229.139,157.194 220.5,162.5C 219.883,162.389 219.383,162.056 219,161.5C 218.875,164.738 217.708,167.405 215.5,169.5C 216.172,162.836 215.172,156.503 212.5,150.5C 214.167,151.833 215.833,153.167 217.5,154.5C 218.421,155.981 219.588,157.314 221,158.5C 230.353,153.417 237.187,146.084 241.5,136.5 Z"/></g>
<g><path style="opacity:1" fill="#a7c33d" d="M 113.5,144.5 C 116.516,147.52 119.183,150.854 121.5,154.5C 120.903,155.139 120.07,155.472 119,155.5C 112.776,153.151 106.61,153.151 100.5,155.5C 99.3777,154.37 98.0443,153.703 96.5,153.5C 94.4707,151.142 92.4707,148.808 90.5,146.5C 98.0843,148.147 105.751,148.647 113.5,148C 114.171,147.014 114.171,145.847 113.5,144.5 Z"/></g>
<g><path style="opacity:1" fill="#585552" d="M 250.5,131.5 C 251.451,132.919 251.784,134.585 251.5,136.5C 247.041,152.961 236.707,163.961 220.5,169.5C 219.167,168.167 219.167,166.833 220.5,165.5C 223.152,166.262 225.818,165.762 228.5,164C 236.514,158.325 243.181,151.325 248.5,143C 250.185,139.362 250.851,135.529 250.5,131.5 Z"/></g>
<g><path style="opacity:1" fill="#ecf3f6" d="M 186.5,144.5 C 176.66,149.001 168.994,156.001 163.5,165.5C 162.662,165.842 162.328,166.508 162.5,167.5C 158.971,175.816 160.138,183.483 166,190.5C 166.816,191.823 167.983,192.489 169.5,192.5C 170.347,193.966 171.68,194.8 173.5,195C 180.431,196.462 186.764,195.128 192.5,191C 200.629,185.712 206.296,178.546 209.5,169.5C 212.528,160.207 210.194,152.541 202.5,146.5C 201.833,146.5 201.5,146.167 201.5,145.5C 201.47,144.503 201.97,143.836 203,143.5C 206.596,145.265 209.763,147.598 212.5,150.5C 215.172,156.503 216.172,162.836 215.5,169.5C 213.838,172.83 212.172,176.164 210.5,179.5C 209.094,179.973 208.427,180.973 208.5,182.5C 203.514,186.155 198.847,190.155 194.5,194.5C 190.833,195.833 187.167,197.167 183.5,198.5C 178.346,198.706 173.346,198.039 168.5,196.5C 166.589,195.925 164.922,194.925 163.5,193.5C 159.548,189.597 157.215,184.93 156.5,179.5C 156.335,175.818 156.501,172.152 157,168.5C 163.474,156.19 172.974,147.19 185.5,141.5C 186.386,142.325 186.719,143.325 186.5,144.5 Z"/></g>
<g><path style="opacity:1" fill="#ebebeb" d="M 200.5,150.5 C 202.772,151.441 204.772,152.774 206.5,154.5C 207.354,156.035 207.354,157.368 206.5,158.5C 203.167,157.167 200.833,154.833 199.5,151.5C 199.5,150.833 199.833,150.5 200.5,150.5 Z"/></g>
<g><path style="opacity:1" fill="#fcfcfc" d="M 188.5,151.5 C 188.604,153.703 189.27,155.703 190.5,157.5C 194.143,164.476 199.809,168.809 207.5,170.5C 202.656,180.176 195.323,187.343 185.5,192C 176.889,194.024 170.555,191.191 166.5,183.5C 165.676,180.236 165.342,176.902 165.5,173.5C 169.591,164.181 175.924,156.681 184.5,151C 185.928,150.421 187.262,150.588 188.5,151.5 Z"/></g>
<g><path style="opacity:1" fill="#61892d" d="M 68.5,128.5 C 69.8333,128.5 71.1667,128.5 72.5,128.5C 72.5,128.833 72.5,129.167 72.5,129.5C 73.1217,130.627 73.955,131.627 75,132.5C 76.2116,138.802 78.2116,144.802 81,150.5C 81.3333,148.833 81.6667,147.167 82,145.5C 84.9176,149.667 88.751,152.667 93.5,154.5C 93.5,155.167 93.5,155.833 93.5,156.5C 89.4975,156.029 86.3308,154.029 84,150.5C 83.678,152.689 84.178,154.689 85.5,156.5C 85.5394,157.583 85.8728,158.583 86.5,159.5C 85.675,160.386 84.675,160.719 83.5,160.5C 78.4606,152.564 74.9606,143.897 73,134.5C 72.1959,131.854 70.6959,129.854 68.5,128.5 Z"/></g>
<g><path style="opacity:1" fill="#6d696a" d="M 198.5,129.5 C 196.373,133.637 194.706,137.971 193.5,142.5C 192.686,144.631 192.186,146.964 192,149.5C 189.952,147.213 187.785,147.046 185.5,149C 187.119,149.236 188.119,150.069 188.5,151.5C 187.262,150.588 185.928,150.421 184.5,151C 175.924,156.681 169.591,164.181 165.5,173.5C 164.232,171.095 163.565,168.428 163.5,165.5C 168.994,156.001 176.66,149.001 186.5,144.5C 187.461,142.735 187.795,140.735 187.5,138.5C 188.29,139.609 188.79,140.942 189,142.5C 190.039,141.756 190.539,140.756 190.5,139.5C 193.574,136.433 196.241,133.1 198.5,129.5 Z"/></g>
<g><path style="opacity:1" fill="#b6b127" d="M 95.5,153.5 C 95.8333,153.5 96.1667,153.5 96.5,153.5C 98.0443,153.703 99.3777,154.37 100.5,155.5C 106.61,153.151 112.776,153.151 119,155.5C 120.07,155.472 120.903,155.139 121.5,154.5C 122.906,154.973 123.573,155.973 123.5,157.5C 117.577,158.941 111.577,160.608 105.5,162.5C 104.298,163.405 102.964,163.405 101.5,162.5C 98.5512,160.627 96.5512,157.961 95.5,154.5C 95.5,154.167 95.5,153.833 95.5,153.5 Z"/></g>
<g><path style="opacity:1" fill="#414143" d="M 193.5,142.5 C 193.07,151.634 196.403,158.967 203.5,164.5C 198.768,163.29 194.934,160.623 192,156.5C 191.617,157.056 191.117,157.389 190.5,157.5C 189.27,155.703 188.604,153.703 188.5,151.5C 188.119,150.069 187.119,149.236 185.5,149C 187.785,147.046 189.952,147.213 192,149.5C 192.186,146.964 192.686,144.631 193.5,142.5 Z"/></g>
<g><path style="opacity:1" fill="#898e91" d="M 200.5,150.5 C 199.833,150.5 199.5,150.833 199.5,151.5C 198.535,152.721 198.702,154.054 200,155.5C 202.739,158.118 205.573,160.618 208.5,163C 207.552,163.483 206.552,163.649 205.5,163.5C 200.527,160.528 197.527,156.195 196.5,150.5C 196.672,141.19 197.172,141.19 198,150.5C 198.977,149.226 199.811,149.226 200.5,150.5 Z"/></g>
<g><path style="opacity:1" fill="#62701d" d="M 93.5,156.5 C 94.5686,158.969 95.9019,161.302 97.5,163.5C 98.1098,164.391 98.4431,165.391 98.5,166.5C 93.8769,163.711 90.0435,160.045 87,155.5C 86.6012,155.728 86.4346,156.062 86.5,156.5C 86.1667,156.5 85.8333,156.5 85.5,156.5C 84.178,154.689 83.678,152.689 84,150.5C 86.3308,154.029 89.4975,156.029 93.5,156.5 Z"/></g>
<g><path style="opacity:1" fill="#c8a218" d="M 123.5,157.5 C 125.326,159.147 126.66,161.147 127.5,163.5C 127.5,164.5 127.5,165.5 127.5,166.5C 124.675,166.919 122.509,165.919 121,163.5C 116.062,164.303 111.895,165.303 108.5,166.5C 107.026,165.564 106.026,164.23 105.5,162.5C 111.577,160.608 117.577,158.941 123.5,157.5 Z"/></g>
<g><path style="opacity:1" fill="#365424" d="M 100.5,180.5 C 100.5,181.167 100.5,181.833 100.5,182.5C 99.7828,184.953 98.6162,187.287 97,189.5C 96.3292,190.252 95.4959,190.586 94.5,190.5C 93.5,189.833 92.5,189.167 91.5,188.5C 90.0225,184.007 89.0225,179.34 88.5,174.5C 81.5012,170.82 77.1678,165.153 75.5,157.5C 75.369,156.761 75.5357,156.094 76,155.5C 78.9277,157.418 80.5943,160.085 81,163.5C 87.4477,169.463 93.9477,175.129 100.5,180.5 Z"/></g>
<g><path style="opacity:1" fill="#89891e" d="M 93.5,154.5 C 94.1667,154.5 94.8333,154.5 95.5,154.5C 96.5512,157.961 98.5512,160.627 101.5,162.5C 102.85,163.65 102.684,164.317 101,164.5C 99.8615,164.011 98.6948,163.678 97.5,163.5C 95.9019,161.302 94.5686,158.969 93.5,156.5C 93.5,155.833 93.5,155.167 93.5,154.5 Z"/></g>
<g><path style="opacity:1" fill="#909da5" d="M 202.5,146.5 C 210.194,152.541 212.528,160.207 209.5,169.5C 209.5,166.167 209.5,162.833 209.5,159.5C 208.209,159.737 207.209,159.404 206.5,158.5C 207.354,157.368 207.354,156.035 206.5,154.5C 204.716,152.052 203.382,149.385 202.5,146.5 Z"/></g>
<g><path style="opacity:1" fill="#908883" d="M 220.5,162.5 C 220.5,163.833 221.167,164.5 222.5,164.5C 222.158,165.338 221.492,165.672 220.5,165.5C 219.167,166.833 219.167,168.167 220.5,169.5C 218.967,172.118 217.634,174.784 216.5,177.5C 216.84,175.452 216.507,174.452 215.5,174.5C 214.061,176.36 212.395,178.027 210.5,179.5C 212.172,176.164 213.838,172.83 215.5,169.5C 217.708,167.405 218.875,164.738 219,161.5C 219.383,162.056 219.883,162.389 220.5,162.5 Z"/></g>
<g><path style="opacity:1" fill="#54595d" d="M 199.5,151.5 C 200.833,154.833 203.167,157.167 206.5,158.5C 207.209,159.404 208.209,159.737 209.5,159.5C 209.5,162.833 209.5,166.167 209.5,169.5C 208.833,169.833 208.167,170.167 207.5,170.5C 199.809,168.809 194.143,164.476 190.5,157.5C 191.117,157.389 191.617,157.056 192,156.5C 194.934,160.623 198.768,163.29 203.5,164.5C 204.492,164.672 205.158,164.338 205.5,163.5C 206.552,163.649 207.552,163.483 208.5,163C 205.573,160.618 202.739,158.118 200,155.5C 198.702,154.054 198.535,152.721 199.5,151.5 Z"/></g>
<g><path style="opacity:1" fill="#416626" d="M 67.5,128.5 C 67.8333,128.5 68.1667,128.5 68.5,128.5C 70.6959,129.854 72.1959,131.854 73,134.5C 74.9606,143.897 78.4606,152.564 83.5,160.5C 84.4787,162.145 85.812,163.479 87.5,164.5C 88.2811,165.729 88.7811,167.062 89,168.5C 94.4423,171.106 98.2757,175.106 100.5,180.5C 93.9477,175.129 87.4477,169.463 81,163.5C 80.5943,160.085 78.9277,157.418 76,155.5C 75.5357,156.094 75.369,156.761 75.5,157.5C 73.5856,151.401 72.0856,145.068 71,138.5C 69.8201,136.14 68.6534,133.807 67.5,131.5C 67.5,130.5 67.5,129.5 67.5,128.5 Z"/></g>
<g><path style="opacity:1" fill="#ba800e" d="M 127.5,163.5 C 129.588,165.336 130.921,167.669 131.5,170.5C 129.53,169.838 127.53,169.172 125.5,168.5C 122.144,169.51 119.144,170.843 116.5,172.5C 116.167,172.5 115.833,172.5 115.5,172.5C 112.661,171.194 110.328,169.194 108.5,166.5C 111.895,165.303 116.062,164.303 121,163.5C 122.509,165.919 124.675,166.919 127.5,166.5C 127.5,165.5 127.5,164.5 127.5,163.5 Z"/></g>
<g><path style="opacity:1" fill="#82680c" d="M 101.5,162.5 C 102.964,163.405 104.298,163.405 105.5,162.5C 106.026,164.23 107.026,165.564 108.5,166.5C 110.328,169.194 112.661,171.194 115.5,172.5C 112.833,172.5 110.167,172.5 107.5,172.5C 104.291,170.735 101.291,168.735 98.5,166.5C 98.4431,165.391 98.1098,164.391 97.5,163.5C 98.6948,163.678 99.8615,164.011 101,164.5C 102.684,164.317 102.85,163.65 101.5,162.5 Z"/></g>
<g><path style="opacity:1" fill="#a85e09" d="M 131.5,170.5 C 132.488,171.795 133.488,173.128 134.5,174.5C 131.482,174.335 128.482,174.502 125.5,175C 123.563,175.122 122.23,175.955 121.5,177.5C 119.5,176.167 117.833,174.5 116.5,172.5C 119.144,170.843 122.144,169.51 125.5,168.5C 127.53,169.172 129.53,169.838 131.5,170.5 Z"/></g>
<g><path style="opacity:1" fill="#557d2d" d="M 85.5,156.5 C 85.8333,156.5 86.1667,156.5 86.5,156.5C 91.5211,163.521 97.5211,169.521 104.5,174.5C 106.271,176.941 107.605,179.607 108.5,182.5C 108.167,183.5 107.833,184.5 107.5,185.5C 105.974,185.994 104.641,186.661 103.5,187.5C 102.313,185.928 101.313,184.261 100.5,182.5C 100.5,181.833 100.5,181.167 100.5,180.5C 98.2757,175.106 94.4423,171.106 89,168.5C 88.7811,167.062 88.2811,165.729 87.5,164.5C 85.812,163.479 84.4787,162.145 83.5,160.5C 84.675,160.719 85.675,160.386 86.5,159.5C 85.8728,158.583 85.5394,157.583 85.5,156.5 Z"/></g>
<g><path style="opacity:1" fill="#784a07" d="M 107.5,172.5 C 110.167,172.5 112.833,172.5 115.5,172.5C 115.833,172.5 116.167,172.5 116.5,172.5C 117.833,174.5 119.5,176.167 121.5,177.5C 122.5,178.833 123.5,180.167 124.5,181.5C 118.35,179.26 112.684,176.26 107.5,172.5 Z"/></g>
<g><path style="opacity:1" fill="#324f18" d="M 98.5,166.5 C 101.291,168.735 104.291,170.735 107.5,172.5C 112.684,176.26 118.35,179.26 124.5,181.5C 124.833,181.5 125.167,181.5 125.5,181.5C 127.5,182.833 129.5,184.167 131.5,185.5C 131.427,187.027 132.094,188.027 133.5,188.5C 134.543,191.056 136.21,193.223 138.5,195C 138.272,195.399 137.938,195.565 137.5,195.5C 134.666,193.498 132.333,190.998 130.5,188C 124.479,186.879 118.479,185.712 112.5,184.5C 112.5,185.5 112.5,186.5 112.5,187.5C 111.834,184.972 111.168,182.306 110.5,179.5C 108.481,177.81 106.481,176.144 104.5,174.5C 97.5211,169.521 91.5211,163.521 86.5,156.5C 86.4346,156.062 86.6012,155.728 87,155.5C 90.0435,160.045 93.8769,163.711 98.5,166.5 Z"/></g>
<g><path style="opacity:1" fill="#ac4608" d="M 134.5,174.5 C 135.6,175.605 136.267,176.938 136.5,178.5C 133.807,178.572 131.14,178.905 128.5,179.5C 126.97,179.64 125.97,180.307 125.5,181.5C 125.167,181.5 124.833,181.5 124.5,181.5C 123.5,180.167 122.5,178.833 121.5,177.5C 122.23,175.955 123.563,175.122 125.5,175C 128.482,174.502 131.482,174.335 134.5,174.5 Z"/></g>
<g><path style="opacity:1" fill="#939ba5" d="M 163.5,165.5 C 163.565,168.428 164.232,171.095 165.5,173.5C 165.342,176.902 165.676,180.236 166.5,183.5C 165.604,182.494 164.938,182.494 164.5,183.5C 163.883,183.389 163.383,183.056 163,182.5C 162.501,177.511 162.334,172.511 162.5,167.5C 162.328,166.508 162.662,165.842 163.5,165.5 Z"/></g>
<g><path style="opacity:1" fill="#eaece9" d="M 100.5,182.5 C 101.313,184.261 102.313,185.928 103.5,187.5C 103.738,189.404 104.738,190.738 106.5,191.5C 106.5,192.5 106.5,193.5 106.5,194.5C 104.94,194.519 103.44,194.852 102,195.5C 99.7903,193.889 97.2903,193.222 94.5,193.5C 94.5,192.5 94.5,191.5 94.5,190.5C 95.4959,190.586 96.3292,190.252 97,189.5C 98.6162,187.287 99.7828,184.953 100.5,182.5 Z"/></g>
<g><path style="opacity:1" fill="#ae2904" d="M 136.5,178.5 C 137.475,180.795 138.808,182.795 140.5,184.5C 140.833,185.833 141.167,187.167 141.5,188.5C 137.993,188.08 134.659,187.08 131.5,185.5C 129.5,184.167 127.5,182.833 125.5,181.5C 125.97,180.307 126.97,179.64 128.5,179.5C 131.14,178.905 133.807,178.572 136.5,178.5 Z"/></g>
<g><path style="opacity:1" fill="#819ab4" d="M 209.5,169.5 C 206.296,178.546 200.629,185.712 192.5,191C 186.764,195.128 180.431,196.462 173.5,195C 171.68,194.8 170.347,193.966 169.5,192.5C 167.06,189.957 165.394,186.957 164.5,183.5C 164.938,182.494 165.604,182.494 166.5,183.5C 170.555,191.191 176.889,194.024 185.5,192C 195.323,187.343 202.656,180.176 207.5,170.5C 208.167,170.167 208.833,169.833 209.5,169.5 Z"/></g>
<g><path style="opacity:1" fill="#676a6b" d="M 154.5,172.5 C 155.167,174.833 155.833,177.167 156.5,179.5C 157.215,184.93 159.548,189.597 163.5,193.5C 162.202,192.884 161.202,192.884 160.5,193.5C 155.573,187.475 153.573,180.475 154.5,172.5 Z"/></g>
<g><path style="opacity:1" fill="#436627" d="M 104.5,174.5 C 106.481,176.144 108.481,177.81 110.5,179.5C 111.168,182.306 111.834,184.972 112.5,187.5C 112.107,189.284 111.441,190.95 110.5,192.5C 109.041,192.567 107.708,192.234 106.5,191.5C 104.738,190.738 103.738,189.404 103.5,187.5C 104.641,186.661 105.974,185.994 107.5,185.5C 107.833,184.5 108.167,183.5 108.5,182.5C 107.605,179.607 106.271,176.941 104.5,174.5 Z"/></g>
<g><path style="opacity:1" fill="#9abbdc" d="M 162.5,167.5 C 162.334,172.511 162.501,177.511 163,182.5C 163.383,183.056 163.883,183.389 164.5,183.5C 165.394,186.957 167.06,189.957 169.5,192.5C 167.983,192.489 166.816,191.823 166,190.5C 160.138,183.483 158.971,175.816 162.5,167.5 Z"/></g>
<g><path style="opacity:1" fill="#5e5a56" d="M 216.5,177.5 C 210.698,188.636 202.032,196.636 190.5,201.5C 196.77,196.242 203.103,190.909 209.5,185.5C 211.547,181.805 213.547,178.138 215.5,174.5C 216.507,174.452 216.84,175.452 216.5,177.5 Z"/></g>
<g><path style="opacity:1" fill="#759535" d="M 131.5,185.5 C 134.659,187.08 137.993,188.08 141.5,188.5C 141.389,189.117 141.056,189.617 140.5,190C 141.823,190.816 142.489,191.983 142.5,193.5C 139.265,192.267 136.265,190.601 133.5,188.5C 132.094,188.027 131.427,187.027 131.5,185.5 Z"/></g>
<g><path style="opacity:1" fill="#836e70" d="M 208.5,182.5 C 207.797,184.716 206.464,186.549 204.5,188C 201.536,190.81 198.202,192.976 194.5,194.5C 198.847,190.155 203.514,186.155 208.5,182.5 Z"/></g>
<g><path style="opacity:1" fill="#93b749" d="M 140.5,184.5 C 145.186,188.186 149.186,192.52 152.5,197.5C 150.599,198.231 148.599,198.231 146.5,197.5C 145.167,196.167 143.833,194.833 142.5,193.5C 142.489,191.983 141.823,190.816 140.5,190C 141.056,189.617 141.389,189.117 141.5,188.5C 141.167,187.167 140.833,185.833 140.5,184.5 Z"/></g>
<g><path style="opacity:1" fill="#54772c" d="M 133.5,188.5 C 136.265,190.601 139.265,192.267 142.5,193.5C 143.833,194.833 145.167,196.167 146.5,197.5C 143.171,197.785 140.171,197.118 137.5,195.5C 137.938,195.565 138.272,195.399 138.5,195C 136.21,193.223 134.543,191.056 133.5,188.5 Z"/></g>
<g><path style="opacity:1" fill="#4b4949" d="M 91.5,188.5 C 92.5,189.167 93.5,189.833 94.5,190.5C 94.5,191.5 94.5,192.5 94.5,193.5C 97.2903,193.222 99.7903,193.889 102,195.5C 103.44,194.852 104.94,194.519 106.5,194.5C 106.5,193.5 106.5,192.5 106.5,191.5C 107.708,192.234 109.041,192.567 110.5,192.5C 110.414,193.496 110.748,194.329 111.5,195C 114.623,195.206 117.623,195.873 120.5,197C 113.933,197.847 107.6,199.347 101.5,201.5C 102.987,196.901 101.654,196.235 97.5,199.5C 94.5937,198.738 91.7604,197.738 89,196.5C 85.6848,197.628 82.3514,198.628 79,199.5C 77.9126,197.248 76.0792,195.915 73.5,195.5C 75.044,193.753 77.044,192.753 79.5,192.5C 83.1311,193.515 86.7978,193.681 90.5,193C 91.3802,191.644 91.7135,190.144 91.5,188.5 Z"/></g>
<g><path style="opacity:1" fill="#454345" d="M 215.5,174.5 C 213.547,178.138 211.547,181.805 209.5,185.5C 203.103,190.909 196.77,196.242 190.5,201.5C 178.415,206.23 168.415,203.564 160.5,193.5C 161.202,192.884 162.202,192.884 163.5,193.5C 164.922,194.925 166.589,195.925 168.5,196.5C 169.842,197.793 171.509,198.626 173.5,199C 177.027,199.808 180.36,199.641 183.5,198.5C 187.167,197.167 190.833,195.833 194.5,194.5C 198.202,192.976 201.536,190.81 204.5,188C 206.464,186.549 207.797,184.716 208.5,182.5C 208.427,180.973 209.094,179.973 210.5,179.5C 212.395,178.027 214.061,176.36 215.5,174.5 Z"/></g>
<g><path style="opacity:1" fill="#989c9d" d="M 168.5,196.5 C 173.346,198.039 178.346,198.706 183.5,198.5C 180.36,199.641 177.027,199.808 173.5,199C 171.509,198.626 169.842,197.793 168.5,196.5 Z"/></g>
</svg>
